PathFileType	4	(X/Y/Z)	 s04c0301.trc
DataRate	CameraRate	NumFrames	NumMarkers	Units	OrigDataRate	OrigDataStartFrame	OrigNumFrames
200	200	4	50	mm	200	1	2000
Frame#	Time	racr			lacr			c7			jug			rlel			rdr			llel			ldr			s2			lic			ric			lasi			rasi			rpsi			lpsi			rgt			lgt			rth1			rth2			rth3			rth4			rlfc			rmfc			rsh1			rsh2			rsh3			rsh4			rlmal			rmmal			rcal			rtoe			rmt5			lth1			lth2			lth4			lth3			llfc			lmfc			lsh1			lsh2			lsh3			lsh4			llmal			lmmal			lcal			ltoe			lmt5			SBIKE			LBIKE			RBIKE			
		X1	Y1	Z1	X2	Y2	Z2	X3	Y3	Z3	X4	Y4	Z4	X5	Y5	Z5	X6	Y6	Z6	X7	Y7	Z7	X8	Y8	Z8	X9	Y9	Z9	X10	Y10	Z10	X11	Y11	Z11	X12	Y12	Z12	X13	Y13	Z13	X14	Y14	Z14	X15	Y15	Z15	X16	Y16	Z16	X17	Y17	Z17	X18	Y18	Z18	X19	Y19	Z19	X20	Y20	Z20	X21	Y21	Z21	X22	Y22	Z22	X23	Y23	Z23	X24	Y24	Z24	X25	Y25	Z25	X26	Y26	Z26	X27	Y27	Z27	X28	Y28	Z28	X29	Y29	Z29	X30	Y30	Z30	X31	Y31	Z31	X32	Y32	Z32	X33	Y33	Z33	X34	Y34	Z34	X35	Y35	Z35	X36	Y36	Z36	X37	Y37	Z37	X38	Y38	Z38	X39	Y39	Z39	X40	Y40	Z40	X41	Y41	Z41	X42	Y42	Z42	X43	Y43	Z43	X44	Y44	Z44	X45	Y45	Z45	X46	Y46	Z46	X47	Y47	Z47	X48	Y48	Z48	X49	Y49	Z49	X50	Y50	Z50	
1	0.0050	505.320006	1427.669931	-105.327133	517.126589	1417.185193	-408.104742	493.018102	1475.235998	-262.310648	504.336820	1328.992945	-257.660804	495.888907	1116.056056	-9.810112	703.276646	915.929899	-83.696129	516.341972	1137.848419	-515.400553	705.751690	911.489446	-444.560288	-44.677008	1191.540642	-269.215453	123.611741	1190.646559	-419.089522	115.402013	1169.118593	-104.619011	NaN	NaN	NaN	149.305964	1110.966814	-150.227846	-9.500962	1227.757545	-222.111649	-12.613483	1236.293222	-296.775315	54.062625	1113.061730	-91.516964	70.839162	1133.104661	-465.671535	131.382726	965.127839	-74.183264	188.217228	898.921660	-84.965611	207.513155	815.111637	-91.769771	217.630242	915.014386	-102.088020	256.039527	679.750424	-120.155617	229.292158	665.345286	-230.213510	192.745907	569.189996	-96.479508	174.558300	481.776481	-111.438486	113.151640	419.528531	-117.561860	201.410578	471.207849	-137.801339	53.249944	281.639518	-128.470893	72.832661	285.280354	-213.811240	-22.893311	264.332312	-168.476533	265.969320	182.762226	-152.733970	194.391979	174.718141	-99.158190	132.952247	1079.087039	-472.534132	218.676432	1069.740628	-477.646101	232.482685	1100.280730	-461.901114	290.115979	1017.163102	-488.579527	427.916505	932.490992	-469.799034	463.615354	914.605677	-361.443597	389.040464	823.998832	-487.814173	365.001566	743.429201	-461.774312	301.970493	681.311463	-456.029267	389.238267	735.117006	-432.265129	221.528556	560.842603	-438.429210	219.018234	567.948672	-350.675061	138.227149	546.341320	-393.606522	436.175809	504.760767	-402.830244	362.159091	474.090124	-463.426564	-177.831336	938.695264	-279.575998	-2.955062	85.919893	-485.109927	-15.023807	80.433525	-84.352849	
2	0.0100	505.309948	1427.651901	-105.317325	517.124544	1417.180754	-408.101531	493.046111	1475.215600	-262.321865	504.325502	1328.980838	-257.653483	495.894554	1116.042912	-9.816430	703.278522	915.938511	-83.709284	516.296985	1137.850955	-515.382367	705.763504	911.506067	-444.570198	-44.651000	1191.559967	-269.238531	123.653946	1190.640369	-419.077165	115.417460	1169.127270	-104.613879	NaN	NaN	NaN	149.311930	1110.985911	-150.246713	-9.467086	1227.762262	-222.135739	-12.606208	1236.310357	-296.793956	54.057932	1113.085311	-91.510737	70.887043	1133.126432	-465.694834	131.392285	965.144718	-74.197306	188.201608	898.943208	-84.981121	207.541831	815.123049	-91.775665	217.632026	915.007509	-102.099345	256.056611	679.767694	-120.145075	229.339294	665.346220	-230.198264	192.769175	569.196251	-96.478099	174.570784	481.780920	-111.415852	113.179892	419.531494	-117.564744	201.448309	471.226584	-137.781139	53.273087	281.646163	-128.478453	72.827701	285.313923	-213.813827	-22.859428	264.337277	-168.493811	266.001009	182.756968	-152.726221	194.392660	174.711543	-99.162223	132.986928	1079.103169	-472.543572	218.724379	1069.722851	-477.623514	232.518167	1100.275077	-461.867032	290.156184	1017.198111	-488.571721	427.946904	932.493170	-469.783911	463.647071	914.613325	-361.413884	389.062332	824.006851	-487.800911	365.021868	743.431499	-461.747096	301.997588	681.306149	-456.014943	389.267493	735.127300	-432.264955	221.536433	560.849825	-438.437713	219.024270	567.959756	-350.679520	138.219750	546.353230	-393.599512	436.178303	504.758654	-402.818221	362.167990	474.093628	-463.433817	-177.831255	938.703063	-279.573748	-2.969117	85.967044	-485.104178	-15.024292	80.447630	-84.352157	
3	0.0150	505.282945	1427.633670	-105.297607	517.130543	1417.189355	-408.108003	493.079143	1475.196888	-262.310448	504.296197	1328.968568	-257.658764	495.863847	1116.028374	-9.821285	703.279529	915.946505	-83.714906	516.274734	1137.851196	-515.349334	705.761280	911.510799	-444.547748	-44.635187	1191.581168	-269.255992	123.714453	1190.664555	-419.101292	115.422643	1169.144247	-104.622112	NaN	NaN	NaN	149.310238	1110.980892	-150.273561	-9.442680	1227.768235	-222.161592	-12.548489	1236.310577	-296.830006	54.063626	1113.092544	-91.521480	70.913258	1133.143879	-465.713499	131.397662	965.150649	-74.211430	188.226791	898.951609	-84.991243	207.555659	815.133121	-91.771747	217.643328	915.032833	-102.085757	256.090243	679.783146	-120.151783	229.366427	665.359482	-230.192620	192.800257	569.209040	-96.479576	174.588262	481.772141	-111.425425	113.189933	419.554463	-117.557413	201.451997	471.240899	-137.781094	53.292186	281.659745	-128.476334	72.864678	285.321801	-213.806049	-22.826769	264.385070	-168.494736	266.009915	182.732292	-152.727908	194.412597	174.711359	-99.155284	133.024193	1079.121071	-472.548362	218.743487	1069.762516	-477.639823	232.531773	1100.313061	-461.859352	290.189056	1017.194309	-488.565445	427.977000	932.503797	-469.763259	463.659314	914.597089	-361.376826	389.078797	824.008244	-487.764915	365.045958	743.432742	-461.730939	301.998277	681.353792	-456.005471	389.278022	735.137731	-432.243862	221.534150	560.878780	-438.432013	219.028770	567.967110	-350.680358	138.226509	546.367913	-393.606137	436.173822	504.749455	-402.798023	362.157222	474.105328	-463.436761	-177.832386	938.701758	-279.568830	-2.972673	85.955372	-485.103287	-15.004993	80.437840	-84.344996	
4	0.0200	505.274195	1427.617903	-105.265990	517.127785	1417.200077	-408.090617	493.106920	1475.180546	-262.318101	504.283859	1328.940151	-257.653789	495.843931	1116.012171	-9.817720	703.277659	915.927598	-83.719068	516.359041	1137.798819	-515.210459	705.761597	911.511486	-444.548692	-44.734787	1191.549195	-269.396929	123.757684	1190.655796	-419.073301	115.557240	1169.061613	-104.592689	NaN	NaN	NaN	149.337038	1110.980198	-150.228120	-9.376171	1227.743992	-222.190268	-12.532512	1236.334964	-296.844148	54.084312	1113.114667	-91.541512	70.959295	1133.154824	-465.713892	131.508216	965.310306	-74.142187	188.706892	898.482562	-84.824884	207.545374	815.136574	-91.781527	217.666917	915.026709	-102.106113	256.105854	679.781170	-120.139661	229.410754	665.349804	-230.191667	192.813538	569.225293	-96.473829	173.631310	480.925250	-112.334672	113.215611	419.552839	-117.556942	201.363602	470.958070	-138.007856	53.313784	281.628814	-128.291776	72.885767	285.322980	-213.803679	-22.731453	264.408108	-168.474520	266.021619	182.731154	-152.726269	194.437306	174.694235	-99.166971	133.059593	1079.131216	-472.526955	218.789098	1069.794401	-477.619792	232.572346	1100.545089	-462.096180	290.231768	1017.220326	-488.533162	427.936751	932.537604	-469.689839	463.662482	914.610903	-361.346598	389.101707	824.022043	-487.749531	365.085761	743.471741	-461.813378	302.003465	681.037850	-455.532123	389.340054	735.180609	-432.393800	221.558860	560.743970	-438.159343	220.060128	567.919094	-349.573433	138.216767	546.377724	-393.604735	436.161765	504.754696	-402.806149	362.138413	474.121547	-463.437683	-177.886213	938.724006	-279.831446	-2.966356	85.950607	-485.106708	-15.019320	80.442193	-84.358417	
